# Tiled2Unity generated file. Do not modify by hand.
# Wavefront file for 'lichmap(1)_mesh_0002.obj'

# Vertices (Count = 60)
v -288 -48 0
v -304 -48 0
v -304 -32 0
v -288 -32 0
v -208 -64 0
v -224 -64 0
v -224 -48 0
v -208 -48 0
v -96 -64 0
v -112 -64 0
v -112 -48 0
v -96 -48 0
v -48 -80 0
v -64 -80 0
v -64 -64 0
v -48 -64 0
v -32 -80 0
v -48 -80 0
v -48 -64 0
v -32 -64 0
v -288 -128 0
v -304 -128 0
v -304 -112 0
v -288 -112 0
v -176 -128 0
v -192 -128 0
v -192 -112 0
v -176 -112 0
v -64 -144 0
v -80 -144 0
v -80 -128 0
v -64 -128 0
v -208 -160 0
v -224 -160 0
v -224 -144 0
v -208 -144 0
v -96 -176 0
v -112 -176 0
v -112 -160 0
v -96 -160 0
v -224 -224 0
v -240 -224 0
v -240 -208 0
v -224 -208 0
v -160 -224 0
v -176 -224 0
v -176 -208 0
v -160 -208 0
v -288 -240 0
v -304 -240 0
v -304 -224 0
v -288 -224 0
v -96 -240 0
v -112 -240 0
v -112 -224 0
v -96 -224 0
v -48 -272 0
v -64 -272 0
v -64 -256 0
v -48 -256 0

# Texture cooridinates (Count = 8)
vt 0.8956612 0.6463878
vt 0.9121901 0.6463878
vt 0.9121901 0.6768061
vt 0.8956612 0.6768061
vt 0.8429752 0.8726236
vt 0.8595041 0.8726236
vt 0.8595041 0.9030418
vt 0.8429752 0.9030418

# Normal
vn 0 0 -1

# Mesh description
g lichmap(1)_mesh_0002

# Faces
f 1/1/1 2/2/1 3/3/1 4/4/1
f 5/5/1 6/6/1 7/7/1 8/8/1
f 9/5/1 10/6/1 11/7/1 12/8/1
f 13/5/1 14/6/1 15/7/1 16/8/1
f 17/1/1 18/2/1 19/3/1 20/4/1
f 21/5/1 22/6/1 23/7/1 24/8/1
f 25/5/1 26/6/1 27/7/1 28/8/1
f 29/5/1 30/6/1 31/7/1 32/8/1
f 33/5/1 34/6/1 35/7/1 36/8/1
f 37/5/1 38/6/1 39/7/1 40/8/1
f 41/5/1 42/6/1 43/7/1 44/8/1
f 45/5/1 46/6/1 47/7/1 48/8/1
f 49/5/1 50/6/1 51/7/1 52/8/1
f 53/5/1 54/6/1 55/7/1 56/8/1
f 57/5/1 58/6/1 59/7/1 60/8/1

