# Tiled2Unity generated file. Do not modify by hand.
# Wavefront file for 'lich(3)_bossroom_mesh_0002.obj'

# Vertices (Count = 140)
v -288 -48 0
v -304 -48 0
v -304 -32 0
v -288 -32 0
v -192 -48 0
v -208 -48 0
v -208 -32 0
v -192 -32 0
v -176 -48 0
v -192 -48 0
v -192 -32 0
v -176 -32 0
v -160 -48 0
v -176 -48 0
v -176 -32 0
v -160 -32 0
v -144 -48 0
v -160 -48 0
v -160 -32 0
v -144 -32 0
v -128 -48 0
v -144 -48 0
v -144 -32 0
v -128 -32 0
v -112 -48 0
v -128 -48 0
v -128 -32 0
v -112 -32 0
v -96 -48 0
v -112 -48 0
v -112 -32 0
v -96 -32 0
v -80 -48 0
v -96 -48 0
v -96 -32 0
v -80 -32 0
v -64 -48 0
v -80 -48 0
v -80 -32 0
v -64 -32 0
v -48 -48 0
v -64 -48 0
v -64 -32 0
v -48 -32 0
v -80 -64 0
v -96 -64 0
v -96 -48 0
v -80 -48 0
v -112 -96 0
v -128 -96 0
v -128 -80 0
v -112 -80 0
v -176 -112 0
v -192 -112 0
v -192 -96 0
v -176 -96 0
v -304 -128 0
v -320 -128 0
v -320 -112 0
v -304 -112 0
v -256 -128 0
v -272 -128 0
v -272 -112 0
v -256 -112 0
v -64 -144 0
v -80 -144 0
v -80 -128 0
v -64 -128 0
v -144 -160 0
v -160 -160 0
v -160 -144 0
v -144 -144 0
v -320 -224 0
v -336 -224 0
v -336 -208 0
v -320 -208 0
v -176 -224 0
v -192 -224 0
v -192 -208 0
v -176 -208 0
v -224 -240 0
v -240 -240 0
v -240 -224 0
v -224 -224 0
v -112 -240 0
v -128 -240 0
v -128 -224 0
v -112 -224 0
v -208 -288 0
v -224 -288 0
v -224 -272 0
v -208 -272 0
v -288 -320 0
v -304 -320 0
v -304 -304 0
v -288 -304 0
v -192 -336 0
v -208 -336 0
v -208 -320 0
v -192 -320 0
v -64 -336 0
v -80 -336 0
v -80 -320 0
v -64 -320 0
v -320 -352 0
v -336 -352 0
v -336 -336 0
v -320 -336 0
v -304 -352 0
v -320 -352 0
v -320 -336 0
v -304 -336 0
v -288 -352 0
v -304 -352 0
v -304 -336 0
v -288 -336 0
v -272 -352 0
v -288 -352 0
v -288 -336 0
v -272 -336 0
v -256 -352 0
v -272 -352 0
v -272 -336 0
v -256 -336 0
v -240 -352 0
v -256 -352 0
v -256 -336 0
v -240 -336 0
v -224 -352 0
v -240 -352 0
v -240 -336 0
v -224 -336 0
v -208 -352 0
v -224 -352 0
v -224 -336 0
v -208 -336 0
v -192 -352 0
v -208 -352 0
v -208 -336 0
v -192 -336 0

# Texture cooridinates (Count = 12)
vt 0.8429752 0.8079848
vt 0.8595041 0.8079848
vt 0.8595041 0.838403
vt 0.8429752 0.838403
vt 0.7551653 0.3878327
vt 0.7716942 0.3878327
vt 0.7716942 0.418251
vt 0.7551653 0.418251
vt 0.2283058 0.7110266
vt 0.2448347 0.7110266
vt 0.2448347 0.7414448
vt 0.2283058 0.7414448

# Normal
vn 0 0 -1

# Mesh description
g lich(3)_bossroom_mesh_0002

# Faces
f 1/1/1 2/2/1 3/3/1 4/4/1
f 5/5/1 6/6/1 7/7/1 8/8/1
f 9/5/1 10/6/1 11/7/1 12/8/1
f 13/5/1 14/6/1 15/7/1 16/8/1
f 17/5/1 18/6/1 19/7/1 20/8/1
f 21/5/1 22/6/1 23/7/1 24/8/1
f 25/5/1 26/6/1 27/7/1 28/8/1
f 29/5/1 30/6/1 31/7/1 32/8/1
f 33/5/1 34/6/1 35/7/1 36/8/1
f 37/5/1 38/6/1 39/7/1 40/8/1
f 41/5/1 42/6/1 43/7/1 44/8/1
f 45/9/1 46/10/1 47/11/1 48/12/1
f 49/1/1 50/2/1 51/3/1 52/4/1
f 53/9/1 54/10/1 55/11/1 56/12/1
f 57/9/1 58/10/1 59/11/1 60/12/1
f 61/1/1 62/2/1 63/3/1 64/4/1
f 65/9/1 66/10/1 67/11/1 68/12/1
f 69/1/1 70/2/1 71/3/1 72/4/1
f 73/1/1 74/2/1 75/3/1 76/4/1
f 77/1/1 78/2/1 79/3/1 80/4/1
f 81/9/1 82/10/1 83/11/1 84/12/1
f 85/1/1 86/2/1 87/3/1 88/4/1
f 89/1/1 90/2/1 91/3/1 92/4/1
f 93/1/1 94/2/1 95/3/1 96/4/1
f 97/9/1 98/10/1 99/11/1 100/12/1
f 101/1/1 102/2/1 103/3/1 104/4/1
f 105/5/1 106/6/1 107/7/1 108/8/1
f 109/5/1 110/6/1 111/7/1 112/8/1
f 113/5/1 114/6/1 115/7/1 116/8/1
f 117/5/1 118/6/1 119/7/1 120/8/1
f 121/5/1 122/6/1 123/7/1 124/8/1
f 125/5/1 126/6/1 127/7/1 128/8/1
f 129/5/1 130/6/1 131/7/1 132/8/1
f 133/5/1 134/6/1 135/7/1 136/8/1
f 137/5/1 138/6/1 139/7/1 140/8/1

