# Tiled2Unity generated file. Do not modify by hand.
# Wavefront file for 'lich(3)_bossroom_mesh_0003.obj'

# Vertices (Count = 8)
v -112 -48 0
v -128 -48 0
v -128 -32 0
v -112 -32 0
v -256 -352 0
v -272 -352 0
v -272 -336 0
v -256 -336 0

# Texture cooridinates (Count = 8)
vt 0.8780992 0.2585551
vt 0.8946281 0.2585551
vt 0.8946281 0.2889734
vt 0.8780992 0.2889734
vt 0.8605372 0.2585551
vt 0.8770661 0.2585551
vt 0.8770661 0.2889734
vt 0.8605372 0.2889734

# Normal
vn 0 0 -1

# Mesh description
g lich(3)_bossroom_mesh_0003

# Faces
f 1/1/1 2/2/1 3/3/1 4/4/1
f 5/5/1 6/6/1 7/7/1 8/8/1

